<svg xmlns="http://www.w3.org/2000/svg" xmlns:xlink="http://www.w3.org/1999/xlink" version="1.1" x="0px" y="0px" viewBox="0 0 100 100" style="enable-background:new 0 0 100 100;" xml:space="preserve"><path d="M84.28,68.72V10.45h7.91c1.46,0,2.64-1.18,2.64-2.64s-1.18-2.64-2.64-2.64H39.5c-0.01,0-0.01,0-0.02,0H28.91  c-1.46,0-2.64,1.18-2.64,2.64s1.18,2.64,2.64,2.64h6.91L20.2,58.04c-0.6-0.08-1.22-0.13-1.84-0.13c-7.27,0-13.18,5.91-13.18,13.18  s5.91,13.18,13.18,13.18s13.18-5.91,13.18-13.18c0-4.78-2.55-8.97-6.37-11.28l16.19-49.36h16.55v58.27  c-6.01,1.22-10.55,6.55-10.55,12.92c0,7.27,5.91,13.18,13.18,13.18c4.31,0,8.14-2.08,10.55-5.28c2.41,3.21,6.24,5.28,10.55,5.28  c7.27,0,13.18-5.91,13.18-13.18C94.82,75.27,90.29,69.95,84.28,68.72z M18.36,79c-4.36,0-7.91-3.55-7.91-7.91s3.55-7.91,7.91-7.91  s7.91,3.55,7.91,7.91S22.72,79,18.36,79z M79,10.45v58.27c-3.21,0.66-6.01,2.48-7.91,5.02c-1.9-2.53-4.7-4.36-7.91-5.02V10.45H79z   M60.55,89.55c-4.36,0-7.91-3.55-7.91-7.91s3.55-7.91,7.91-7.91s7.91,3.55,7.91,7.91S64.91,89.55,60.55,89.55z M81.64,89.55  c-4.36,0-7.91-3.55-7.91-7.91s3.55-7.91,7.91-7.91s7.91,3.55,7.91,7.91S86,89.55,81.64,89.55z" fill="#ffffff" stroke="#ffffff" stroke-width="2"/></svg>